<svg width="14" height="14" viewBox="0 0 14 14" fill="none" xmlns="http://www.w3.org/2000/svg">
<g id="Shape">
<path id="Union" fill-rule="evenodd" clip-rule="evenodd" d="M2.69137 2.69088C2.89639 2.48585 3.2288 2.48585 3.43382 2.69088L7.00008 6.25713L10.5663 2.69088C10.7714 2.48585 11.1038 2.48585 11.3088 2.69088C11.5138 2.8959 11.5138 3.22831 11.3088 3.43334L7.74253 6.99959L11.3088 10.5658C11.5138 10.7709 11.5138 11.1033 11.3088 11.3083C11.1038 11.5133 10.7714 11.5133 10.5663 11.3083L7.00008 7.74205L3.43382 11.3083C3.2288 11.5133 2.89639 11.5133 2.69137 11.3083C2.48634 11.1033 2.48634 10.7709 2.69137 10.5658L6.25762 6.99959L2.69137 3.43334C2.48634 3.22831 2.48634 2.8959 2.69137 2.69088Z" fill="white"/>
</g>
</svg>
