<svg width="36" height="36" viewBox="0 0 36 36" fill="none" xmlns="http://www.w3.org/2000/svg">
<g id="Shape">
<path id="Vector" fill-rule="evenodd" clip-rule="evenodd" d="M10.9833 10.9165C10.9833 7.04136 14.1247 3.8999 17.9999 3.8999C21.8751 3.8999 25.0165 7.04136 25.0165 10.9165C25.0165 14.7917 21.8751 17.9332 17.9999 17.9332C14.1247 17.9332 10.9833 14.7917 10.9833 10.9165ZM18 19.6513C22.3983 19.6513 26.708 20.8838 30.4641 23.1633C30.754 23.3389 31.1051 23.5515 31.3995 23.8896C31.6484 24.1754 31.8523 24.5386 31.9669 24.8998C32.1027 25.3282 32.1014 25.7637 32.1004 26.128L32.1002 28.3953C32.1002 28.7768 32.1002 29.1399 32.0752 29.4458C32.048 29.7794 31.9844 30.1621 31.7895 30.5445C31.5163 31.0808 31.0803 31.5168 30.544 31.79C30.1616 31.9849 29.7789 32.0485 29.4453 32.0757C29.1394 32.1007 28.7763 32.1007 28.3948 32.1007H7.60562C7.22414 32.1007 6.86108 32.1007 6.55514 32.0757C6.22153 32.0485 5.83886 31.9849 5.4564 31.79C4.92014 31.5168 4.48415 31.0808 4.21091 30.5445C4.01603 30.1621 3.95246 29.7794 3.9252 29.4458C3.9002 29.1399 3.90024 28.7768 3.90028 28.3953L3.9001 26.1277C3.89903 25.7634 3.89775 25.3279 4.03358 24.8996C4.14812 24.5383 4.35209 24.1751 4.60097 23.8893C4.89538 23.5512 5.2465 23.3386 5.53645 23.163C9.29238 20.8837 13.602 19.6513 18 19.6513Z" fill="#B3BDCC"/>
</g>
</svg>
