<svg width="18" height="18" viewBox="0 0 18 18" fill="none" xmlns="http://www.w3.org/2000/svg">
<g id="Shape">
<path id="Vector" fill-rule="evenodd" clip-rule="evenodd" d="M8.99912 3.70915L2.71656 7.12469L8.99915 10.541L15.2817 7.12549L8.99912 3.70915ZM8.47085 2.45976C8.63189 2.37233 8.81296 2.3251 8.99913 2.3251C9.1853 2.3251 9.36637 2.37233 9.52742 2.45976L16.1915 6.08354C16.3838 6.18822 16.5379 6.34476 16.6421 6.52829C16.743 6.70594 16.7958 6.90557 16.7989 7.10656C16.7991 7.11281 16.7992 7.11909 16.7992 7.12538V11.6254H15.4492V8.57104L14.1658 9.26875C14.1713 9.30348 14.1742 9.33909 14.1742 9.37538V13.5004C14.1742 13.756 14.0297 13.9898 13.8011 14.1041L9.30111 16.3541C9.11108 16.4491 8.88741 16.4491 8.69738 16.3541L4.19743 14.1041C3.96875 13.9898 3.8243 13.756 3.8243 13.5004V9.37538C3.8243 9.33894 3.82719 9.30319 3.83274 9.26832L1.80676 8.16664C1.61451 8.06196 1.46042 7.90542 1.35617 7.72189C1.2521 7.53865 1.19922 7.33205 1.19922 7.12467C1.19922 6.91729 1.2521 6.71069 1.35617 6.52745C1.46042 6.34392 1.61418 6.18757 1.80643 6.08289L8.47085 2.45976ZM9.52777 11.7902L12.8242 9.99812V13.0832L8.99924 14.9957L5.17429 13.0832V9.99782L8.47044 11.7902C8.63147 11.8776 8.81295 11.9251 8.99913 11.9251C9.18531 11.9251 9.36673 11.8777 9.52777 11.7902Z" fill="#778195"/>
</g>
</svg>
