<svg width="49" height="49" viewBox="0 0 49 49" fill="none" xmlns="http://www.w3.org/2000/svg">
<g id="Shape">
<path id="Vector" fill-rule="evenodd" clip-rule="evenodd" d="M11.0157 6.07422C10.507 6.07417 10.023 6.07412 9.61503 6.10745C9.17021 6.1438 8.65999 6.22857 8.15004 6.4884C7.43502 6.85272 6.8537 7.43405 6.48938 8.14906C6.22954 8.65902 6.14477 9.16924 6.10843 9.61405C6.0751 10.022 6.07515 10.5061 6.0752 11.0147V38.7337C6.07515 39.2424 6.0751 39.7265 6.10843 40.1344C6.14477 40.5792 6.22954 41.0894 6.48938 41.5994C6.8537 42.3144 7.43502 42.8957 8.15004 43.2601C8.65999 43.5199 9.17021 43.6047 9.61503 43.641C10.0229 43.6743 10.507 43.6743 11.0156 43.6742H38.7347C39.2433 43.6743 39.7275 43.6743 40.1354 43.641C40.5802 43.6047 41.0904 43.5199 41.6004 43.2601C42.3154 42.8957 42.8967 42.3144 43.261 41.5994C43.5209 41.0894 43.6056 40.5792 43.642 40.1344C43.6753 39.7265 43.6753 39.2425 43.6752 38.7339V11.0147C43.6753 10.5061 43.6753 10.0219 43.642 9.61405C43.6056 9.16924 43.5209 8.65902 43.261 8.14906C42.8967 7.43405 42.3154 6.85272 41.6004 6.4884C41.0904 6.22857 40.5802 6.1438 40.1354 6.10745C39.7275 6.07412 39.2434 6.07417 38.7347 6.07422H11.0157ZM9.67523 9.87414C9.67523 9.76368 9.76477 9.67414 9.87523 9.67414H39.8752C39.9857 9.67414 40.0752 9.76368 40.0752 9.87414V28.5297L34.8749 23.3294L27.8749 30.3294L17.8749 20.3294L9.67523 28.5291V9.87414ZM9.67523 33.6203V39.8741C9.67523 39.9846 9.76477 40.0741 9.87523 40.0741H39.8752C39.9857 40.0741 40.0752 39.9846 40.0752 39.8741V33.6209L34.8749 28.4206L27.8749 35.4206L17.8749 25.4206L9.67523 33.6203ZM35.375 16.875C35.375 18.2557 34.2557 19.375 32.875 19.375C31.4942 19.375 30.375 18.2557 30.375 16.875C30.375 15.4943 31.4942 14.375 32.875 14.375C34.2557 14.375 35.375 15.4943 35.375 16.875Z" fill="#778195"/>
</g>
</svg>
