<svg width="24" height="24" viewBox="0 0 24 24" fill="none" xmlns="http://www.w3.org/2000/svg">
<path d="M21 12.1689C21 11.3903 20.9368 10.8221 20.8001 10.2329H11.909V13.7472H17.1278C17.0227 14.6206 16.4545 15.9358 15.1918 16.8196L15.1741 16.9373L17.9853 19.1151L18.1801 19.1345C19.9688 17.4825 21 15.0519 21 12.1689Z" fill="#4285F4"/>
<path d="M11.909 21.4288C14.4659 21.4288 16.6123 20.587 18.1801 19.135L15.1919 16.8201C14.3922 17.3778 13.319 17.7671 11.909 17.7671C9.40483 17.7671 7.27941 16.1152 6.52175 13.8319L6.4107 13.8413L3.48758 16.1036L3.44935 16.2098C5.00659 19.3033 8.20528 21.4288 11.909 21.4288Z" fill="#34A853"/>
<path d="M6.52171 13.8315C6.32179 13.2423 6.20609 12.6109 6.20609 11.9586C6.20609 11.3062 6.32179 10.6749 6.51119 10.0857L6.50589 9.96019L3.54614 7.66162L3.4493 7.70768C2.80749 8.99138 2.43922 10.4329 2.43922 11.9586C2.43922 13.4843 2.80749 14.9258 3.4493 16.2095L6.52171 13.8315Z" fill="#FBBC05"/>
<path d="M11.909 6.15064C13.6872 6.15064 14.8867 6.91874 15.5707 7.56063L18.2432 4.95116C16.6019 3.42547 14.4659 2.48901 11.909 2.48901C8.20528 2.48901 5.00659 4.61444 3.44935 7.70788L6.51123 10.0859C7.27941 7.80261 9.40483 6.15064 11.909 6.15064Z" fill="#EB4335"/>
</svg>
