<svg width="32" height="32" viewBox="0 0 32 32" fill="none" xmlns="http://www.w3.org/2000/svg">
<rect width="32" height="32" rx="8" fill="url(#paint0_linear_80_2248)"/>
<path fill-rule="evenodd" clip-rule="evenodd" d="M15.4606 6.28891L15.4606 8.44693L22.0332 8.44693L15.8715 14.6286L17.4 16.1521L23.5532 9.97889L23.5532 16.5395L25.7112 16.5395L25.7112 6.28891L15.4606 6.28891Z" fill="white"/>
<path fill-rule="evenodd" clip-rule="evenodd" d="M14.1286 19.7471C15.1596 20.4343 16.4856 20.8556 18.1581 20.8556L18.1581 18.6975C16.8632 18.6975 15.9639 18.3769 15.3257 17.9515C14.6808 17.5215 14.2373 16.9405 13.9304 16.3267C13.6214 15.7087 13.4615 15.0776 13.3806 14.5919C13.3405 14.3516 13.3209 14.1537 13.3114 14.0201C13.3066 13.9535 13.3044 13.9034 13.3034 13.8727C13.3029 13.8573 13.3027 13.8469 13.3026 13.8416C13.3025 13.839 13.3025 13.8377 13.3025 13.8377L13.3025 13.8388L13.3025 13.8401L13.3025 13.841C13.3025 13.8415 13.3025 13.842 12.2235 13.842C11.1445 13.842 11.1445 13.8425 11.1445 13.8431L11.1445 13.8444L11.1445 13.8473C11.1445 13.8485 11.1445 13.8497 11.1445 13.8511C11.1445 13.8523 11.1445 13.8535 11.1446 13.8548C11.1446 13.8606 11.1447 13.8678 11.1448 13.8764C11.1451 13.8936 11.1456 13.9165 11.1465 13.9446C11.1484 14.0008 11.152 14.0782 11.1588 14.1739C11.1725 14.3648 11.1992 14.6306 11.2519 14.9466C11.3564 15.5737 11.5674 16.4262 12.0002 17.2918C12.4351 18.1616 13.1045 19.0643 14.1286 19.7471Z" fill="white"/>
<path fill-rule="evenodd" clip-rule="evenodd" d="M11.3215 23.8439C13.0352 24.9864 15.2717 25.7111 18.1581 25.7111L18.1581 23.5531C15.6494 23.5531 13.8396 22.929 12.5186 22.0484C11.1908 21.1632 10.2922 19.9753 9.68182 18.7545C9.06933 17.5295 8.7577 16.2915 8.60088 15.3506C8.5229 14.8827 8.48433 14.4951 8.4653 14.2287C8.4558 14.0958 8.45121 13.9935 8.449 13.9272C8.4479 13.8941 8.44739 13.87 8.44716 13.8555C8.44704 13.8483 8.44699 13.8435 8.44698 13.8412L8.44697 13.8411C8.44697 13.8415 8.44697 13.842 7.36796 13.842C6.28894 13.842 6.28894 13.8426 6.28894 13.8432L6.28895 13.8446L6.28896 13.8482C6.28897 13.8509 6.28899 13.8543 6.28902 13.8584C6.28906 13.863 6.28911 13.8685 6.28919 13.8749C6.28925 13.8796 6.28932 13.8847 6.28941 13.8903C6.28984 13.9167 6.29065 13.9532 6.29218 13.9991C6.29524 14.0909 6.30119 14.2205 6.31276 14.3825C6.33588 14.7062 6.38161 15.1617 6.47222 15.7053C6.65259 16.7876 7.01535 18.2471 7.75162 19.7196C8.49001 21.1964 9.61453 22.706 11.3215 23.8439Z" fill="white"/>
<defs>
<linearGradient id="paint0_linear_80_2248" x1="16" y1="0" x2="16" y2="32" gradientUnits="userSpaceOnUse">
<stop offset="0.4" stop-color="#08C767"/>
<stop offset="1" stop-color="#3DDBC6"/>
</linearGradient>
</defs>
</svg>
