<svg width="18" height="18" viewBox="0 0 18 18" fill="none" xmlns="http://www.w3.org/2000/svg">
<g id="Shape">
<path id="Vector" fill-rule="evenodd" clip-rule="evenodd" d="M7.46171 1.38797H7.43516H7.43514C7.03775 1.38796 6.69937 1.38795 6.42155 1.41065C6.12968 1.4345 5.84574 1.48672 5.57429 1.62503C5.16504 1.83356 4.8323 2.16629 4.62378 2.57554C4.48547 2.84699 4.43324 3.13093 4.4094 3.4228C4.3867 3.70062 4.38671 4.039 4.38672 4.43639V4.43641V4.46296V13.5379V13.5645V13.5645C4.38671 13.9619 4.3867 14.3003 4.4094 14.5781C4.43324 14.87 4.48547 15.1539 4.62378 15.4254C4.8323 15.8346 5.16504 16.1673 5.57429 16.3759C5.84574 16.5142 6.12968 16.5664 6.42155 16.5902C6.69937 16.6129 7.03775 16.6129 7.43514 16.6129H7.43516H7.46171H10.5367H10.5633H10.5633C10.9607 16.6129 11.299 16.6129 11.5769 16.5902C11.8687 16.5664 12.1527 16.5142 12.4241 16.3759C12.8334 16.1673 13.1661 15.8346 13.3746 15.4254C13.5129 15.1539 13.5652 14.87 13.589 14.5781C13.6117 14.3003 13.6117 13.9619 13.6117 13.5645V13.5379V4.46296V4.43641C13.6117 4.03901 13.6117 3.70062 13.589 3.4228C13.5652 3.13093 13.5129 2.84699 13.3746 2.57554C13.1661 2.16629 12.8334 1.83356 12.4241 1.62503C12.1527 1.48672 11.8687 1.4345 11.5769 1.41065C11.299 1.38795 10.9607 1.38796 10.5633 1.38797H10.5633H10.5367H7.46171ZM6.18717 2.82789C6.23659 2.80271 6.3231 2.77319 6.53148 2.75616C6.74775 2.73849 7.03053 2.73797 7.46171 2.73797H10.5367C10.9679 2.73797 11.2507 2.73849 11.4669 2.75616C11.6753 2.77319 11.7618 2.80271 11.8112 2.82789C11.9665 2.90698 12.0927 3.03319 12.1718 3.18842C12.197 3.23784 12.2265 3.32435 12.2435 3.53273C12.2612 3.749 12.2617 4.03179 12.2617 4.46296V13.5379C12.2617 13.9691 12.2612 14.2519 12.2435 14.4682C12.2265 14.6765 12.197 14.7631 12.1718 14.8125C12.0927 14.9677 11.9665 15.0939 11.8112 15.173C11.7618 15.1982 11.6753 15.2277 11.4669 15.2447C11.2507 15.2624 10.9679 15.2629 10.5367 15.2629H7.46171C7.03053 15.2629 6.74775 15.2624 6.53148 15.2447C6.3231 15.2277 6.23659 15.1982 6.18717 15.173C6.03194 15.0939 5.90573 14.9677 5.82664 14.8125C5.80146 14.7631 5.77194 14.6765 5.75491 14.4682C5.73724 14.2519 5.73672 13.9691 5.73672 13.5379V4.46296C5.73672 4.03179 5.73724 3.749 5.75491 3.53273C5.77194 3.32435 5.80146 3.23784 5.82664 3.18842C5.90573 3.03319 6.03194 2.90698 6.18717 2.82789ZM7.49918 13.3686C7.21958 13.3686 6.99293 13.5953 6.99293 13.8748C6.99293 14.1544 7.21958 14.3811 7.49918 14.3811H10.4992C10.7788 14.3811 11.0054 14.1544 11.0054 13.8748C11.0054 13.5953 10.7788 13.3686 10.4992 13.3686H7.49918Z" fill="#778195"/>
</g>
</svg>
