<svg width="16" height="16" viewBox="0 0 16 16" fill="none" xmlns="http://www.w3.org/2000/svg">
<g id="Shape">
<g id="Vector">
<path fill-rule="evenodd" clip-rule="evenodd" d="M13.9333 10.0003L13.9333 12.2872C13.9333 12.4567 13.9333 12.6181 13.9222 12.7541C13.9101 12.9023 13.8819 13.0724 13.7952 13.2424C13.6738 13.4807 13.48 13.6745 13.2417 13.7959C13.0717 13.8826 12.9016 13.9108 12.7534 13.9229C12.6174 13.934 12.456 13.934 12.2865 13.934H3.71348C3.54394 13.934 3.38256 13.934 3.24659 13.9229C3.09832 13.9108 2.92825 13.8826 2.75826 13.7959C2.51993 13.6745 2.32615 13.4807 2.20471 13.2424C2.1181 13.0724 2.08984 12.9023 2.07773 12.7541C2.06662 12.6181 2.06663 12.4567 2.06665 12.2872V10.0003H3.26665V12.6671C3.26665 12.704 3.2965 12.7338 3.33332 12.7338H12.6666C12.7035 12.7338 12.7333 12.704 12.7333 12.6671V10.0003H13.9333Z" fill="#778195"/>
<path d="M11.2702 5.74525C11.0431 5.98656 10.6634 5.99806 10.4221 5.77095L8.59996 4.05603V10.3341C8.59996 10.6655 8.33133 10.9341 7.99996 10.9341C7.66859 10.9341 7.39996 10.6655 7.39996 10.3341V4.05603L5.57786 5.77095C5.33655 5.99806 4.95683 5.98656 4.72972 5.74525C4.50261 5.50395 4.51412 5.12423 4.75542 4.89712L7.58874 2.23046C7.81977 2.01302 8.18015 2.01302 8.41118 2.23046L11.2445 4.89712C11.4858 5.12423 11.4973 5.50395 11.2702 5.74525Z" fill="#778195"/>
</g>
</g>
</svg>
