<svg width="20" height="20" viewBox="0 0 20 20" fill="none" xmlns="http://www.w3.org/2000/svg">
<g id="Shape">
<path id="Vector" fill-rule="evenodd" clip-rule="evenodd" d="M7.49999 2.83203H12.5V1.33203H7.49999V2.83203ZM17.4999 5.74901H16.3754L16.3755 16.1905C16.3755 16.4024 16.3755 16.6041 16.3616 16.7741C16.3465 16.9594 16.3111 17.172 16.2029 17.3845C16.0511 17.6824 15.8089 17.9246 15.5109 18.0764C15.2985 18.1847 15.0859 18.22 14.9005 18.2351C14.7306 18.249 14.5289 18.249 14.317 18.249H5.68401C5.4721 18.249 5.27037 18.249 5.10041 18.2351C4.91507 18.22 4.70248 18.1847 4.49 18.0764C4.19208 17.9246 3.94986 17.6824 3.79806 17.3845C3.6898 17.172 3.65448 16.9594 3.63933 16.7741C3.62545 16.6041 3.62547 16.4024 3.62549 16.1904L3.62549 5.74901H2.5V4.24901H17.4999V5.74901ZM5.12479 5.74901H14.8748V16.6652C14.8748 16.7112 14.8375 16.7485 14.7914 16.7485H5.20812C5.1621 16.7485 5.12479 16.7112 5.12479 16.6652V5.74901ZM10.9166 13.749V8.749H12.4166V13.749H10.9166ZM7.58332 8.749V13.749H9.08331V8.749H7.58332Z" fill="#778195"/>
</g>
</svg>
